<svg width="40" height="52" viewBox="0 0 40 52" fill="none" xmlns="http://www.w3.org/2000/svg">
<path d="M20.2439 0.64153C20.4025 0.642729 20.4025 0.642729 20.5643 0.643951C22.4067 0.684647 23.9475 1.41478 25.2734 2.69158C26.5609 4.13921 27.2621 5.90714 27.202 7.85666C27.0126 9.86661 26.179 11.6003 24.6406 12.922C24.2967 13.1803 23.9456 13.4245 23.5859 13.6603C23.6587 13.7142 23.7314 13.768 23.8064 13.8235C24.6409 14.4692 25.4075 15.1963 25.828 16.1882C26.0485 16.572 26.2239 16.6723 26.6173 16.8668C26.7993 16.9587 26.7993 16.9587 26.9848 17.0524C27.1131 17.1149 27.2413 17.1773 27.3696 17.2397C27.6177 17.3636 27.8657 17.4876 28.1137 17.6117C28.2982 17.7022 28.2982 17.7022 28.4864 17.7946C28.7433 17.9254 28.9912 18.0582 29.2397 18.203C29.3603 18.2724 29.4809 18.3419 29.6051 18.4134C29.7128 18.4777 29.8205 18.5419 29.9314 18.6081C30.2235 18.7526 30.2235 18.7526 30.5107 18.6549C30.7372 18.5238 30.924 18.3954 31.1183 18.221C31.2147 18.1357 31.2147 18.1357 31.3131 18.0486C31.38 17.9883 31.4469 17.928 31.5159 17.8659C31.6571 17.7412 31.7984 17.6166 31.9398 17.4922C32.0083 17.4318 32.0767 17.3714 32.1473 17.3091C33.3328 16.2726 34.5019 15.258 36.1544 15.3112C37.017 15.417 37.8473 15.7754 38.457 16.4025C39.1667 17.373 39.4087 18.2646 39.3008 19.4611C38.97 21.0545 37.7482 21.8088 36.4894 22.6655C36.1545 22.8966 35.8262 23.1361 35.4977 23.3761C33.6002 24.7625 32.1119 25.6449 29.7031 25.4728C28.3657 25.2646 27.1041 24.4858 25.9063 23.8908C25.8179 24.2997 25.7297 24.7087 25.6417 25.1177C25.5971 25.3247 25.5524 25.5316 25.5077 25.7386C25.4653 25.9354 25.4653 25.9354 25.4222 26.1361C25.3832 26.3167 25.3832 26.3167 25.3435 26.501C24.938 28.486 25.101 30.3858 26.1986 32.136C26.5731 32.692 26.9997 33.211 27.4174 33.7348C27.7858 34.1983 28.1338 34.674 28.4771 35.1562C28.9767 35.8559 29.49 36.5435 30.0129 37.226C30.8637 38.3365 31.6937 39.4614 32.5201 40.5901C32.7015 40.8377 32.8832 41.0853 33.0649 41.3327C33.1546 41.4549 33.1546 41.4549 33.2461 41.5795C33.5802 42.033 33.9186 42.4827 34.2622 42.9291C34.3372 43.0268 34.4123 43.1244 34.4897 43.225C34.6337 43.4119 34.7782 43.5984 34.9234 43.7844C36.0411 45.2335 36.6352 46.4015 36.4531 48.2541C36.2462 49.3825 35.5126 50.1897 34.5942 50.8381C33.7066 51.423 32.6249 51.4129 31.6016 51.3127C29.97 50.9445 28.9406 49.4724 27.9472 48.2421C27.6734 47.906 27.3936 47.5756 27.1126 47.2455C26.7044 46.7656 26.3071 46.2788 25.9157 45.785C25.6561 45.4633 25.3897 45.1479 25.1218 44.8329C24.5236 44.1295 23.9393 43.4154 23.3569 42.6988C22.9284 42.1732 22.4956 41.6518 22.0566 41.1349C21.2797 40.2198 20.5203 39.2923 19.7891 38.34C19.3947 38.4985 19.2047 38.7199 18.9453 39.0519C18.5677 39.5264 18.1818 39.9907 17.7852 40.4494C17.4013 40.8938 17.0253 41.3424 16.658 41.8007C15.7907 42.8579 14.9752 43.7093 13.5664 43.9299C13.3713 43.9471 13.1755 43.9578 12.9797 43.9628C12.8817 43.9668 12.7837 43.9707 12.6827 43.9748C11.652 43.8536 10.8032 43.4138 9.95411 42.8422C9.75121 42.7094 9.54824 42.5768 9.34519 42.4442C9.24149 42.376 9.13779 42.3078 9.03095 42.2375C8.51286 41.8997 7.98762 41.5736 7.46241 41.247C7.25091 41.115 7.03942 40.9831 6.82795 40.8511C6.61317 40.7172 6.39839 40.5833 6.1836 40.4494C3.6599 38.8762 3.6599 38.8762 2.78882 38.3202C2.68074 38.2513 2.57265 38.1824 2.46129 38.1114C1.62642 37.5464 1.03582 36.8519 0.749075 35.8697C0.544229 34.7524 0.674976 33.8031 1.26035 32.8367C1.84252 31.9937 2.64798 31.4346 3.64576 31.2011C5.21703 31.0408 6.47101 31.6981 7.81177 32.4338C7.95978 32.5137 8.10785 32.5936 8.25597 32.6733C8.93379 33.039 9.60857 33.4101 10.2829 33.7822C10.3899 33.8411 10.497 33.9001 10.6073 33.9608C10.8045 34.0696 11.0012 34.1792 11.1975 34.2896C11.2838 34.3375 11.3701 34.3854 11.4591 34.4348C11.5702 34.4972 11.5702 34.4972 11.6836 34.5609C11.8913 34.6702 11.8913 34.6702 12.1953 34.6486C12.2351 34.5744 12.2748 34.5001 12.3158 34.4237C12.4345 34.2021 12.5534 33.9807 12.6724 33.7592C12.8077 33.5073 12.9424 33.2551 13.0768 33.0026C13.3664 32.4602 13.6558 31.9204 13.985 31.4005C14.5204 30.5518 14.6996 29.9885 14.5422 28.9735C14.4851 28.4768 14.4952 27.9761 14.4959 27.4767C14.4958 27.3667 14.4957 27.2567 14.4957 27.1434C14.5006 26.424 14.5585 25.7444 14.6784 25.0349C14.7911 24.3323 14.8219 23.763 14.4102 23.1525C13.9219 22.7119 13.6195 22.586 12.974 22.5963C12.5662 22.6431 12.296 22.7857 11.9844 23.047C11.5857 23.6326 11.4407 24.1979 11.2988 24.8862C11.0431 26.1216 10.7104 26.9278 9.66407 27.6877C8.97383 28.1185 8.12837 28.1061 7.34376 28.0041C6.44002 27.7237 5.81493 27.2399 5.33985 26.422C4.92357 25.6201 5.00717 24.6807 5.13674 23.8162C5.15653 23.6759 5.15653 23.6759 5.17672 23.5327C5.20476 23.3361 5.23342 23.1396 5.26268 22.9432C5.30658 22.647 5.34797 22.3505 5.38908 22.054C5.73493 19.6295 6.47049 17.515 8.50391 15.9806C9.69957 15.1375 11.011 14.7838 12.4063 14.3986C12.5666 14.3538 12.727 14.3088 12.8873 14.2638C13.9917 13.9539 15.097 13.6475 16.2031 13.3439C16.2031 13.2743 16.2031 13.2047 16.2031 13.133C16.0497 12.9871 15.8903 12.8476 15.7285 12.7111C14.2694 11.4169 13.4827 9.86672 13.3258 7.91187C13.2787 6.15342 13.7605 4.60219 14.832 3.21892C14.8885 3.14496 14.9449 3.071 15.003 2.9948C16.285 1.42076 18.2438 0.620152 20.2439 0.64153ZM17.0638 3.53863C15.9787 4.52757 15.2493 5.69967 15.1258 7.18224C15.0742 8.62609 15.5728 9.89057 16.4866 10.9972C17.5007 12.071 18.7952 12.6115 20.2637 12.6584C21.7257 12.6117 23.012 12.0725 24.0342 11.017C24.9091 9.96385 25.4394 8.67092 25.4053 7.29719C25.2672 5.82417 24.6544 4.64994 23.5859 3.6408C23.284 3.39819 22.9749 3.19632 22.6367 3.00799C22.5645 2.96693 22.4923 2.92587 22.418 2.88357C20.6839 2.00533 18.5375 2.31179 17.0638 3.53863ZM14.7874 15.5952C14.4273 15.6973 14.0669 15.7985 13.7064 15.8993C13.4249 15.9783 13.1435 16.0579 12.8622 16.1377C12.6657 16.1933 12.4691 16.2482 12.2725 16.3031C10.5519 16.7944 8.98083 17.5627 8.04908 19.1711C7.46996 20.353 7.24187 21.5863 7.06924 22.8788C7.03365 23.1415 6.99463 23.4036 6.95546 23.6659C6.93211 23.835 6.90896 24.0042 6.88604 24.1734C6.87419 24.2507 6.86235 24.3279 6.85014 24.4075C6.77865 24.9786 6.86829 25.2954 7.13282 25.7892C7.36193 26.0445 7.52136 26.1863 7.86327 26.2474C8.33266 26.2686 8.66474 26.2089 9.03125 25.8947C9.42633 25.2419 9.54943 24.4961 9.71536 23.7602C9.94148 22.83 10.2734 21.9892 11.0747 21.4189C11.2351 21.325 11.3977 21.2346 11.5625 21.1486C11.6274 21.1129 11.6922 21.0771 11.759 21.0403C12.5455 20.6748 13.5689 20.7122 14.3904 20.9443C15.2152 21.2745 15.8032 21.8057 16.206 22.5926C16.63 23.599 16.5936 24.564 16.4141 25.631C15.9824 28.4213 16.5122 31.1902 18.1647 33.5011C18.6768 34.1883 19.2339 34.8399 19.7891 35.4924C19.8955 35.6183 20.002 35.7442 20.1084 35.8702C20.2536 36.042 20.3989 36.2137 20.5445 36.3851C21.0817 37.0175 21.6042 37.6616 22.1275 38.3054C22.5559 38.8311 22.9888 39.3525 23.4277 39.8693C23.8549 40.3723 24.2761 40.8796 24.693 41.3912C25.5167 42.4013 26.3449 43.4075 27.1891 44.4007C27.7261 45.0332 28.2487 45.6772 28.772 46.321C29.2587 46.9181 29.7515 47.5093 30.251 48.0956C30.4645 48.3465 30.6736 48.5981 30.8744 48.8593C31.2447 49.3013 31.6569 49.4818 32.2245 49.5642C32.9637 49.5978 33.4685 49.4864 34.0273 48.9924C34.5933 48.3817 34.7113 47.9166 34.6915 47.0952C34.6061 46.2293 34.017 45.6248 33.4951 44.9627C33.1479 44.5205 32.8166 44.0672 32.4849 43.6135C31.9504 42.884 31.4068 42.1624 30.8567 41.4448C30.2809 40.6931 29.7193 39.9334 29.1685 39.1633C28.7271 38.5485 28.2715 37.9455 27.8113 37.3447C27.0228 36.3145 26.2457 35.2772 25.4844 34.2267C25.4295 34.1518 25.3747 34.0769 25.3182 33.9997C24.6352 33.0632 24.0723 32.1666 23.6914 31.0627C23.6558 30.9599 23.6202 30.8571 23.5835 30.7512C22.9386 28.4911 23.544 26.1067 24.0106 23.873C24.1431 23.2386 24.2732 22.6037 24.4003 21.9682C24.4445 21.7506 24.4907 21.5335 24.5371 21.3164C24.8468 19.7861 24.9708 18.2531 24.1578 16.8545C23.9788 16.5864 23.7896 16.3359 23.5859 16.0861C23.5332 16.0189 23.4804 15.9518 23.4261 15.8826C22.6724 15.0261 21.399 14.4907 20.2818 14.3727C18.4623 14.2828 16.5244 15.1023 14.7874 15.5952ZM34.1592 18.0571C34.028 18.1717 33.8967 18.2862 33.7653 18.4007C33.7018 18.4562 33.6382 18.5117 33.5727 18.5688C33.2619 18.8375 32.9415 19.0932 32.6179 19.3462C32.3993 19.5194 32.1857 19.6959 31.9728 19.876C31.8425 19.9838 31.7121 20.0916 31.5818 20.1994C31.5216 20.2515 31.4615 20.3036 31.3995 20.3572C31.3407 20.4052 31.2819 20.4532 31.2213 20.5026C31.17 20.5458 31.1187 20.5891 31.0659 20.6336C30.7404 20.7832 30.4789 20.7585 30.125 20.7267C29.7688 20.5849 29.7688 20.5849 29.4024 20.3881C29.3368 20.3535 29.2712 20.3189 29.2036 20.2832C28.9958 20.1732 28.7892 20.0611 28.5825 19.9489C28.3749 19.8379 28.1671 19.7273 27.9592 19.6169C27.7708 19.5166 27.5831 19.4153 27.3953 19.3139C27.1136 19.169 26.8354 19.0448 26.5391 18.9338C26.3771 20.4627 26.3771 20.4627 26.2227 21.9924C27.0707 22.4214 27.9203 22.8467 28.7803 23.2514C28.8455 23.2824 28.9108 23.3134 28.9781 23.3454C29.8807 23.7667 30.9475 23.8768 31.9048 23.5414C32.7061 23.1682 33.4188 22.6129 34.1328 22.0978C34.2135 22.0398 34.2943 21.9818 34.3774 21.9221C34.7071 21.6851 35.0365 21.448 35.3645 21.2087C35.7869 20.9007 36.2136 20.6048 36.6509 20.318C37.0941 20.0071 37.3115 19.7588 37.5078 19.2502C37.6004 18.6903 37.5067 18.2465 37.1914 17.7736C36.7977 17.3756 36.4615 17.1574 35.8928 17.1144C35.1551 17.1644 34.6881 17.5854 34.1592 18.0571ZM15.4648 32.4338C15.4213 32.516 15.3778 32.5983 15.333 32.6831C15.1675 32.9956 15.0015 33.308 14.8353 33.6202C14.7642 33.7539 14.6932 33.8878 14.6224 34.0217C13.2247 36.6652 13.2247 36.6652 12.8281 36.8635C12.3307 36.9044 12.0299 36.8176 11.5922 36.585C11.4776 36.5248 11.3631 36.4647 11.2451 36.4028C11.1236 36.3373 11.0021 36.2718 10.877 36.2043C10.7494 36.1366 10.6217 36.0691 10.494 36.0017C9.23851 35.3367 7.98979 34.6573 6.74859 33.966C6.47971 33.8164 6.20982 33.6688 5.9397 33.5214C5.86098 33.4769 5.78227 33.4323 5.70116 33.3864C5.08667 33.0545 4.49067 32.8783 3.79242 33.0171C3.20689 33.2901 2.92376 33.5608 2.59766 34.1213C2.43003 34.6241 2.38091 35.1237 2.59148 35.6217C3.08845 36.4536 3.88132 36.8732 4.68726 37.371C4.91647 37.5134 5.14567 37.6558 5.37487 37.7983C5.49188 37.8708 5.60888 37.9434 5.72943 38.0181C6.26835 38.3526 6.80602 38.6891 7.34376 39.0256C7.55277 39.1562 7.76178 39.2868 7.9708 39.4174C8.41206 39.6931 8.85314 39.9692 9.2941 40.2455C9.46316 40.3513 9.46316 40.3513 9.63564 40.4593C9.84937 40.5931 10.0631 40.727 10.2767 40.861C10.7567 41.1614 11.2377 41.4599 11.7215 41.7542C11.8052 41.8051 11.8888 41.856 11.975 41.9084C12.4242 42.1592 12.8521 42.1871 13.3555 42.1369C14.3366 41.8271 14.8929 41.1378 15.5155 40.3571C15.8061 39.9934 16.1097 39.6415 16.4141 39.2892C16.9521 38.6648 17.4786 38.0324 17.9961 37.3908C18.1168 37.2572 18.1168 37.2572 18.24 37.1209C18.4442 36.8866 18.4442 36.8866 18.3922 36.6559C18.2596 36.2993 17.9852 36.0465 17.7324 35.7692C16.839 34.758 16.1338 33.6627 15.5703 32.4338C15.5355 32.4338 15.5007 32.4338 15.4648 32.4338Z" fill="#FAFAFA"/>
</svg>
