<svg width="32" height="32" viewBox="0 0 32 32" fill="none" xmlns="http://www.w3.org/2000/svg">
<path d="M15.6 4H6.66667C5.95942 4 5.28115 4.28095 4.78105 4.78105C4.28095 5.28115 4 5.95942 4 6.66667V28L9.33333 22.6667H25.3333C26.0406 22.6667 26.7189 22.3857 27.219 21.8856C27.719 21.3855 28 20.7072 28 20V16.4" stroke="#353535" stroke-width="1.75" stroke-linecap="round" stroke-linejoin="round"/>
<path d="M24 12C26.2091 12 28 10.2091 28 8C28 5.79086 26.2091 4 24 4C21.7909 4 20 5.79086 20 8C20 10.2091 21.7909 12 24 12Z" stroke="#353535" stroke-width="1.75" stroke-linecap="round" stroke-linejoin="round"/>
</svg>
