<svg width="52" height="52" viewBox="0 0 52 52" fill="none" xmlns="http://www.w3.org/2000/svg">
<g clip-path="url(#clip0_6_5638)">
<path d="M35.0831 27.0529C35.4828 27.4023 35.4828 27.4023 35.9531 27.6247C36.1767 27.5358 36.1767 27.5358 36.3975 27.3708C37.7983 26.4751 39.4679 25.9613 41.1328 25.8981C41.2707 25.892 41.2707 25.892 41.4113 25.8858C44.032 25.8267 46.4263 26.6886 48.4453 28.3356C48.5064 28.3825 48.5676 28.4293 48.6306 28.4776C50.4781 29.9227 51.6943 32.44 52 34.734C52.0357 35.4278 52.0318 36.1237 52.0356 36.8182C52.0372 37.0449 52.04 37.2717 52.0439 37.4984C52.0495 37.8272 52.0517 38.1559 52.0532 38.4847C52.0555 38.5852 52.0578 38.6858 52.0601 38.7894C52.0579 39.5414 51.868 40.0345 51.342 40.5762C50.721 41.1281 50.1777 41.1618 49.385 41.1555C49.2363 41.1556 49.2363 41.1556 49.0846 41.1556C48.7576 41.1555 48.4307 41.1539 48.1037 41.1523C47.8767 41.1519 47.6498 41.1517 47.4228 41.1514C46.8259 41.1507 46.229 41.1487 45.6321 41.1464C45.0228 41.1444 44.4135 41.1434 43.8042 41.1424C42.609 41.1402 41.4139 41.1368 40.2187 41.1325C40.2192 41.2614 40.2197 41.3903 40.2202 41.5231C40.2238 42.5016 39.9355 43.1209 39.2595 43.8243C38.5882 44.4387 37.8492 44.5293 36.9836 44.5234C36.8857 44.524 36.7878 44.5245 36.687 44.5251C36.3607 44.5265 36.0344 44.5258 35.708 44.5251C35.4734 44.5257 35.2388 44.5264 35.0042 44.5272C34.3679 44.529 33.7317 44.5289 33.0954 44.5283C32.5639 44.528 32.0324 44.5286 31.5008 44.5292C30.175 44.5307 28.8491 44.5304 27.5233 44.5291C26.3734 44.5281 25.2235 44.5295 24.0736 44.5319C22.8912 44.5344 21.7089 44.5353 20.5265 44.5347C19.8634 44.5343 19.2002 44.5346 18.5371 44.5363C17.9134 44.5379 17.2897 44.5375 16.6659 44.5356C16.4374 44.5352 16.2089 44.5355 15.9803 44.5366C15.6676 44.5379 15.355 44.5367 15.0422 44.5349C14.9525 44.5359 14.8627 44.5369 14.7703 44.5379C13.9504 44.5283 13.2191 44.3082 12.6064 43.7477C12.0417 43.123 11.8777 42.5603 11.7812 41.7419C11.655 41.7432 11.5287 41.7446 11.3987 41.746C10.2063 41.7583 9.01393 41.7675 7.82151 41.7734C7.20853 41.7766 6.59561 41.7809 5.98266 41.7878C5.39064 41.7945 4.79868 41.7981 4.20663 41.7997C3.98125 41.8008 3.75588 41.803 3.53052 41.8063C1.39857 41.8363 1.39857 41.8363 0.673017 41.2953C0.220903 40.8497 -0.0100205 40.4065 -0.0179818 39.7637C-0.0192854 39.6717 -0.0205905 39.5797 -0.0219336 39.4849C-0.0226839 39.3853 -0.0234325 39.2856 -0.0242055 39.183C-0.0254352 39.0274 -0.0254336 39.0274 -0.0266882 38.8688C-0.0280945 38.6483 -0.0291848 38.4279 -0.0299829 38.2075C-0.0311433 37.9849 -0.0332049 37.7623 -0.0362313 37.5398C-0.0800437 34.3162 0.801808 31.78 3.05322 29.402C5.23598 27.2676 8.00084 26.5596 10.9731 26.5876C12.7148 26.6252 14.3222 27.2043 15.8437 28.0309C15.9052 27.9624 15.9052 27.9624 15.9679 27.8925C20.9258 22.6399 29.65 22.5964 35.0831 27.0529ZM16.542 29.8844C14.5785 32.1819 13.5816 35.0191 13.5753 38.0317C13.5746 38.1458 13.5739 38.26 13.5732 38.3776C13.5722 38.6162 13.5717 38.8548 13.5717 39.0934C13.5713 39.4587 13.5676 39.8238 13.5637 40.1891C13.5632 40.4221 13.5627 40.6551 13.5626 40.8881C13.5611 40.9969 13.5596 41.1056 13.5581 41.2177C13.5609 41.8166 13.5609 41.8166 13.79 42.3602C14.1239 42.6476 14.3894 42.7827 14.8318 42.7836C14.9534 42.7846 14.9534 42.7846 15.0775 42.7856C15.166 42.7853 15.2545 42.785 15.3457 42.7846C15.4402 42.7851 15.5347 42.7856 15.632 42.786C15.9493 42.7873 16.2667 42.7872 16.584 42.787C16.8112 42.7876 17.0384 42.7883 17.2656 42.7891C17.8834 42.7909 18.5011 42.7913 19.1189 42.7915C19.6343 42.7917 20.1497 42.7924 20.6651 42.7931C21.8114 42.7947 22.9577 42.7953 24.104 42.7951C24.2072 42.7951 24.2072 42.7951 24.3125 42.7951C24.4158 42.7951 24.4158 42.7951 24.5211 42.7951C25.6372 42.795 26.7532 42.797 27.8693 42.7998C29.0154 42.8027 30.1614 42.8041 31.3075 42.804C31.9509 42.8039 32.5943 42.8045 33.2377 42.8066C33.8427 42.8086 34.4477 42.8086 35.0528 42.8071C35.2749 42.8069 35.4971 42.8074 35.7192 42.8086C36.0223 42.8102 36.3254 42.8093 36.6285 42.8077C36.7165 42.8087 36.8046 42.8098 36.8953 42.8109C37.4413 42.8046 37.7563 42.7173 38.1875 42.3512C38.4059 42.0236 38.4165 41.934 38.4185 41.5562C38.4195 41.4564 38.4204 41.3565 38.4214 41.2537C38.4214 41.1455 38.4213 41.0373 38.4212 40.9258C38.4218 40.7571 38.4218 40.7571 38.4225 40.585C38.4231 40.3459 38.4231 40.1067 38.4227 39.8676C38.4224 39.5078 38.4247 39.1482 38.4273 38.7884C38.432 37.1635 38.3658 35.5646 37.8193 34.0168C37.7938 33.9427 37.7682 33.8687 37.7419 33.7924C36.5643 30.5292 34.0549 28.0488 30.9486 26.5889C25.8923 24.3352 20.2181 25.9657 16.542 29.8844ZM37.1719 28.945C37.1719 29.3658 37.3943 29.5981 37.6289 29.9289C39.4484 32.5782 39.9978 35.3769 40.1705 38.5284C40.1775 38.6552 40.1775 38.6552 40.1846 38.7846C40.196 38.9917 40.2074 39.1988 40.2187 39.4059C41.4697 39.413 42.7207 39.4184 43.9717 39.4217C44.5526 39.4233 45.1334 39.4255 45.7143 39.4289C46.2747 39.4322 46.8351 39.434 47.3955 39.4348C47.6094 39.4354 47.8234 39.4365 48.0374 39.4381C48.3367 39.4403 48.636 39.4407 48.9354 39.4405C49.0241 39.4416 49.1129 39.4427 49.2043 39.4438C49.5621 39.442 49.8035 39.4385 50.1254 39.2736C50.37 38.9887 50.3292 38.6604 50.3238 38.303C50.324 38.2237 50.3241 38.1443 50.3243 38.0625C50.3241 37.8938 50.3229 37.7251 50.3208 37.5564C50.3179 37.3036 50.3187 37.051 50.32 36.7982C50.3166 34.163 49.5086 31.9406 47.6328 30.0622C47.5586 29.9868 47.4843 29.9113 47.4079 29.8337C45.715 28.2196 43.4501 27.6442 41.1685 27.6953C39.6993 27.7587 38.4647 28.2783 37.1719 28.945ZM4.46874 30.57C4.36564 30.6585 4.36564 30.6585 4.26046 30.7489C2.70029 32.1903 1.79812 34.3178 1.69752 36.4229C1.68493 36.8342 1.68364 37.2451 1.68683 37.6565C1.6885 37.9119 1.68683 38.1671 1.6849 38.4224C1.6851 38.5858 1.68549 38.7491 1.68609 38.9124C1.68547 38.9882 1.68486 39.0641 1.68422 39.1422C1.68347 39.5385 1.68347 39.5385 1.85594 39.8829C2.06892 40.0438 2.17341 40.053 2.43803 40.0519C2.52049 40.0524 2.60295 40.0528 2.6879 40.0532C2.77798 40.0521 2.86805 40.051 2.96085 40.0499C3.056 40.0499 3.15114 40.05 3.24916 40.05C3.56407 40.0498 3.87892 40.0474 4.19381 40.045C4.41197 40.0445 4.63014 40.044 4.8483 40.0437C5.42284 40.0426 5.99736 40.0396 6.5719 40.0362C7.15803 40.0331 7.74416 40.0317 8.3303 40.0302C9.48063 40.0269 10.6309 40.0217 11.7812 40.0153C11.7864 39.9045 11.7916 39.7936 11.797 39.6795C11.8166 39.263 11.8372 38.8466 11.8579 38.4302C11.8667 38.251 11.8753 38.0717 11.8837 37.8925C11.9438 36.6078 12.0396 35.3679 12.3906 34.1247C12.4179 34.0244 12.4179 34.0244 12.4457 33.9221C12.8914 32.3241 13.7036 30.9194 14.625 29.5544C11.721 27.1983 7.02661 28.3292 4.46874 30.57Z" fill="#FAFAFA"/>
<path d="M30.4688 9.03927C32.1496 10.3804 33.2398 12.1789 33.5156 14.3205C33.7235 16.5376 33.0728 18.541 31.6816 20.2675C30.3827 21.7909 28.5899 22.7162 26.6094 22.9533C24.3234 23.0965 22.1628 22.5155 20.395 21.0046C18.9434 19.6251 17.9886 17.7559 17.875 15.7424C17.8696 15.6606 17.8643 15.5787 17.8587 15.4944C17.7865 13.3874 18.5847 11.5136 19.938 9.92794C22.6911 6.99159 27.2536 6.69283 30.4688 9.03927ZM21.4297 10.969C20.2538 12.2165 19.6494 13.6991 19.6674 15.4031C19.724 17.1678 20.4904 18.5056 21.7344 19.7033C22.884 20.731 24.3667 21.2248 25.8984 21.2268C27.2792 21.1338 28.4749 20.6643 29.5547 19.8049C29.6552 19.7263 29.7558 19.6478 29.8594 19.5669C30.8274 18.7522 31.4208 17.4647 31.6875 16.2502C31.8362 14.4998 31.5527 12.9328 30.4652 11.5113C29.4553 10.3304 28.0941 9.51163 26.5427 9.29119C24.6359 9.14585 22.8429 9.6186 21.4297 10.969Z" fill="#FAFAFA"/>
<path d="M13.8125 14.2189C15.0326 15.1527 16.0496 16.4601 16.3266 18.0077C16.4937 19.8387 16.2688 21.4297 15.1185 22.9327C14.0923 24.1168 12.7358 25.0624 11.1335 25.2099C9.2009 25.3001 7.63421 24.9554 6.11279 23.6833C4.84025 22.4867 4.24174 20.9233 4.16803 19.2022C4.13725 17.7984 4.65091 16.5497 5.48437 15.4377C5.52653 15.3776 5.56869 15.3175 5.61212 15.2556C7.5263 12.7511 11.3277 12.6082 13.8125 14.2189ZM6.90387 16.5116C6.12576 17.4666 5.875 18.5963 5.99219 19.8049C6.16193 20.6391 6.43223 21.3078 7.00781 21.9377C7.08532 22.0257 7.16282 22.1136 7.24267 22.2043C8.15696 23.0123 9.25978 23.5576 10.5093 23.4928C11.8379 23.3283 12.8783 22.8146 13.7395 21.7734C14.4464 20.7935 14.7126 19.7865 14.5774 18.5877C14.3735 17.4305 13.807 16.5138 12.8925 15.7773C10.8961 14.3955 8.55232 14.7787 6.90387 16.5116Z" fill="#FAFAFA"/>
<path d="M45.3984 13.9141C46.6155 14.8287 47.3678 16.1011 47.7344 17.5703C47.9735 19.4272 47.6552 21.0265 46.5156 22.5469C46.4735 22.607 46.4313 22.6671 46.3879 22.729C45.5368 23.8426 44.1095 24.5311 42.7578 24.7813C40.9784 24.9389 39.3487 24.6326 37.8963 23.5482C36.7698 22.569 35.7882 21.2343 35.6484 19.7031C35.5361 17.8331 35.8417 16.2517 37.1084 14.7901C39.3414 12.4588 42.7201 12.0537 45.3984 13.9141ZM38.2415 16.2338C37.5493 17.2101 37.2887 18.2099 37.4226 19.3969C37.6265 20.554 38.193 21.4708 39.1075 22.2073C40.1196 22.9078 41.2244 23.2037 42.4412 23.0075C43.6238 22.7519 44.5323 22.165 45.2969 21.2266C45.9614 20.1812 46.1862 19.0566 45.938 17.8365C45.7417 17.1307 45.4864 16.5877 44.9922 16.0469C44.8759 15.9149 44.8759 15.9149 44.7573 15.7803C43.8157 14.9481 42.7005 14.4271 41.4189 14.485C40.1262 14.6589 39.068 15.222 38.2415 16.2338Z" fill="#FAFAFA"/>
</g>
<defs>
<clipPath id="clip0_6_5638">
<rect width="52" height="52" fill="white"/>
</clipPath>
</defs>
</svg>
