<svg width="52" height="52" viewBox="0 0 52 52" fill="none" xmlns="http://www.w3.org/2000/svg">
<path d="M21.6667 28.1667C27.6497 28.1667 32.5 23.3164 32.5 17.3333C32.5 11.3502 27.6497 6.5 21.6667 6.5C15.6836 6.5 10.8333 11.3502 10.8333 17.3333C10.8333 23.3164 15.6836 28.1667 21.6667 28.1667Z" stroke="#FAFAFA" stroke-width="2" stroke-linecap="round" stroke-linejoin="round"/>
<path d="M4.33333 45.4997C4.33358 42.7718 4.97768 40.0825 6.21325 37.6504C7.44882 35.2184 9.24097 33.1123 11.4439 31.5034C13.6469 29.8946 16.1985 28.8284 18.8912 28.3916C21.584 27.9548 24.3417 28.1597 26.9403 28.9897" stroke="#FAFAFA" stroke-width="2" stroke-linecap="round" stroke-linejoin="round"/>
<path d="M39 45.5C42.5899 45.5 45.5 42.5899 45.5 39C45.5 35.4101 42.5899 32.5 39 32.5C35.4101 32.5 32.5 35.4101 32.5 39C32.5 42.5899 35.4101 45.5 39 45.5Z" stroke="#FAFAFA" stroke-width="2" stroke-linecap="round" stroke-linejoin="round"/>
<path d="M47.6667 47.6665L43.55 43.5498" stroke="#FAFAFA" stroke-width="2" stroke-linecap="round" stroke-linejoin="round"/>
</svg>
