<svg width="520" height="95" viewBox="0 0 520 95" fill="none" xmlns="http://www.w3.org/2000/svg">
<path d="M147.489 77C145.863 77 144.36 76.6059 142.981 75.8176C141.651 74.9801 140.567 73.8963 139.729 72.5661C138.941 71.1867 138.547 69.6841 138.547 68.0583V67.4672H144.607V68.0583C144.607 68.8466 144.878 69.5363 145.42 70.1275C146.011 70.6694 146.701 70.9404 147.489 70.9404H173.205C173.994 70.9404 174.659 70.6694 175.201 70.1275C175.792 69.5363 176.087 68.8466 176.087 68.0583V61.4814C176.087 60.6932 175.792 60.0281 175.201 59.4862C174.659 58.895 173.994 58.5994 173.205 58.5994H147.489C145.863 58.5994 144.36 58.2053 142.981 57.417C141.651 56.5795 140.567 55.4957 139.729 54.1655C138.941 52.7861 138.547 51.2835 138.547 49.6577V43.0808C138.547 41.4551 138.941 39.9771 139.729 38.6469C140.567 37.2675 141.651 36.1837 142.981 35.3954C144.36 34.5579 145.863 34.1392 147.489 34.1392H173.205C174.88 34.1392 176.383 34.5579 177.713 35.3954C179.092 36.1837 180.176 37.2675 180.965 38.6469C181.802 39.9771 182.221 41.4551 182.221 43.0808V43.672H176.087V43.0808C176.087 42.2926 175.792 41.6275 175.201 41.0856C174.659 40.4944 173.994 40.1988 173.205 40.1988H147.489C146.701 40.1988 146.011 40.4944 145.42 41.0856C144.878 41.6275 144.607 42.2926 144.607 43.0808V49.6577C144.607 50.446 144.878 51.1357 145.42 51.7269C146.011 52.2688 146.701 52.5398 147.489 52.5398H173.205C174.88 52.5398 176.383 52.9585 177.713 53.796C179.092 54.5843 180.176 55.6681 180.965 57.0475C181.802 58.3777 182.221 59.8557 182.221 61.4814V68.0583C182.221 69.6841 181.802 71.1867 180.965 72.5661C180.176 73.8963 179.092 74.9801 177.713 75.8176C176.383 76.6059 174.88 77 173.205 77H147.489ZM189.651 93.9965V34.1392H224.383C226.009 34.1392 227.487 34.5579 228.817 35.3954C230.196 36.1837 231.28 37.2675 232.068 38.6469C232.906 39.9771 233.325 41.4551 233.325 43.0808V68.0583C233.325 69.6841 232.906 71.1867 232.068 72.5661C231.28 73.8963 230.196 74.9801 228.817 75.8176C227.487 76.6059 226.009 77 224.383 77H195.711V93.9965H189.651ZM198.667 70.9404H224.383C225.171 70.9404 225.836 70.6694 226.378 70.1275C226.97 69.5363 227.265 68.8466 227.265 68.0583V43.0808C227.265 42.2926 226.97 41.6275 226.378 41.0856C225.836 40.4944 225.171 40.1988 224.383 40.1988H198.667C197.878 40.1988 197.189 40.4944 196.597 41.0856C196.006 41.6275 195.711 42.2926 195.711 43.0808V68.0583C195.711 68.8466 196.006 69.5363 196.597 70.1275C197.189 70.6694 197.878 70.9404 198.667 70.9404ZM247.444 77C245.818 77 244.316 76.6059 242.936 75.8176C241.606 74.9801 240.522 73.8963 239.685 72.5661C238.896 71.1867 238.502 69.6841 238.502 68.0583V43.0808C238.502 41.4551 238.896 39.9771 239.685 38.6469C240.522 37.2675 241.606 36.1837 242.936 35.3954C244.316 34.5579 245.818 34.1392 247.444 34.1392H273.16C274.835 34.1392 276.338 34.5579 277.668 35.3954C279.048 36.1837 280.131 37.2675 280.92 38.6469C281.757 39.9771 282.176 41.4551 282.176 43.0808V68.0583C282.176 69.6841 281.757 71.1867 280.92 72.5661C280.131 73.8963 279.048 74.9801 277.668 75.8176C276.338 76.6059 274.835 77 273.16 77H247.444ZM247.444 70.9404H273.16C273.949 70.9404 274.614 70.6694 275.156 70.1275C275.747 69.5363 276.042 68.8466 276.042 68.0583V43.0808C276.042 42.2926 275.747 41.6275 275.156 41.0856C274.614 40.4944 273.949 40.1988 273.16 40.1988H247.444C246.656 40.1988 245.966 40.4944 245.375 41.0856C244.833 41.6275 244.562 42.2926 244.562 43.0808V68.0583C244.562 68.8466 244.833 69.5363 245.375 70.1275C245.966 70.6694 246.656 70.9404 247.444 70.9404ZM289.02 77V43.0808C289.02 41.4551 289.414 39.9771 290.202 38.6469C291.04 37.2675 292.124 36.1837 293.454 35.3954C294.833 34.5579 296.336 34.1392 297.962 34.1392H322.053V40.1988H297.962C297.174 40.1988 296.484 40.4944 295.893 41.0856C295.351 41.6275 295.08 42.2926 295.08 43.0808V77H289.02ZM335.851 77C334.176 77 332.648 76.6059 331.269 75.8176C329.939 74.9801 328.88 73.8963 328.091 72.5661C327.303 71.1867 326.909 69.6841 326.909 68.0583V20.0986H332.969V34.1392H351.517V40.1988H332.969V68.0583C332.969 68.8466 333.24 69.5363 333.782 70.1275C334.373 70.6694 335.062 70.9404 335.851 70.9404H351.517V77H335.851ZM357.219 77V29.0402C357.219 27.3652 357.613 25.8626 358.401 24.5324C359.189 23.153 360.249 22.0692 361.579 21.2809C362.958 20.4927 364.485 20.0986 366.16 20.0986H381.827V26.1582H366.16C365.372 26.1582 364.682 26.4538 364.091 27.045C363.549 27.5869 363.278 28.252 363.278 29.0402V34.1392H381.827V40.1988H363.278V77H357.219ZM386.795 77V76.9261L404.678 55.2001L386.795 34.2131V34.1392H394.776L408.668 50.3967L422.635 34.1392H430.542V34.2131L412.659 55.2001L430.616 76.9261V77H422.635L408.668 59.8557L394.776 77H386.795ZM438.552 77V70.9404H444.611V77H438.552ZM463.15 77C461.524 77 460.021 76.6059 458.642 75.8176C457.312 74.9801 456.228 73.8963 455.39 72.5661C454.602 71.1867 454.208 69.6841 454.208 68.0583V52.5398H491.748V43.0808C491.748 42.2926 491.453 41.6275 490.862 41.0856C490.32 40.4944 489.655 40.1988 488.866 40.1988H454.208V34.1392H488.866C490.541 34.1392 492.044 34.5579 493.374 35.3954C494.753 36.1837 495.837 37.2675 496.626 38.6469C497.463 39.9771 497.882 41.4551 497.882 43.0808V77H463.15ZM463.15 70.9404H491.748V58.5994H460.268V68.0583C460.268 68.8466 460.539 69.5363 461.081 70.1275C461.672 70.6694 462.362 70.9404 463.15 70.9404ZM505.518 77V34.1392H511.578V77H505.518ZM505.518 26.1582V20.0986H511.578V26.1582H505.518Z" fill="black"/>
<path d="M0 48H25.6475L41.7391 73.3555H66.8531L52.1134 48H76.7552L93 73.3555L80.4055 95H38.3702L24.1186 86.0546L0 48Z" fill="black"/>
<path d="M116 47H90.3528L74.2615 21.6445H49.1466L63.8861 47H39.2457L23 21.6445L35.5943 0H77.6291L91.8817 8.94428L116 47Z" fill="black"/>
</svg>
