<svg width="109" height="101" viewBox="0 0 109 101" fill="none" xmlns="http://www.w3.org/2000/svg">
<g filter="url(#filter0_f_7994_30436)">
<ellipse cx="52.5" cy="51.5" rx="20.5" ry="19.5" fill="#0095FF" style="fill:#0095FF;fill:color(display-p3 0.0000 0.5833 1.0000);fill-opacity:1;"/>
</g>
<g filter="url(#filter1_f_7994_30436)">
<circle cx="39.5" cy="60.5" r="9.5" fill="#00FFB7" style="fill:#00FFB7;fill:color(display-p3 0.0000 1.0000 0.7167);fill-opacity:1;"/>
</g>
<g filter="url(#filter2_f_7994_30436)">
<circle cx="65.5" cy="43.5" r="13.5" fill="#00FFB7" style="fill:#00FFB7;fill:color(display-p3 0.0000 1.0000 0.7167);fill-opacity:1;"/>
</g>
<mask id="mask0_7994_30436" style="mask-type:alpha" maskUnits="userSpaceOnUse" x="25" y="20" width="60" height="60">
<circle cx="55" cy="50" r="29.5" fill="black" stroke="#4E4E4E" style="fill:black;fill-opacity:1;stroke:#4E4E4E;stroke:color(display-p3 0.3077 0.3077 0.3077);stroke-opacity:1;"/>
</mask>
<g mask="url(#mask0_7994_30436)">
<g filter="url(#filter3_f_7994_30436)">
<circle cx="47" cy="52" r="28" fill="#0095FF" style="fill:#0095FF;fill:color(display-p3 0.0000 0.5833 1.0000);fill-opacity:1;"/>
</g>
<g filter="url(#filter4_f_7994_30436)">
<circle cx="29.5" cy="64.5" r="12.5" fill="#00FFB7" style="fill:#00FFB7;fill:color(display-p3 0.0000 1.0000 0.7167);fill-opacity:1;"/>
</g>
<g filter="url(#filter5_f_7994_30436)">
<circle cx="70.5" cy="37.5" r="14.5" fill="#FFD653" style="fill:#FFD653;fill:color(display-p3 1.0000 0.8396 0.3269);fill-opacity:1;"/>
</g>
<path d="M51.248 59.8809C51.7249 59.8809 52.1113 60.2668 52.1113 60.7422C52.1112 61.2174 51.7248 61.6025 51.248 61.6025C50.7713 61.6025 50.3849 61.2174 50.3848 60.7422C50.3848 60.2668 50.7712 59.8809 51.248 59.8809Z" fill="black" style="fill:black;fill-opacity:1;"/>
<path d="M46.0674 54.7168C46.5442 54.7168 46.9305 55.1019 46.9307 55.5771C46.9307 56.0525 46.5442 56.4384 46.0674 56.4385C45.5905 56.4385 45.2041 56.0525 45.2041 55.5771C45.2042 55.1019 45.5906 54.7168 46.0674 54.7168Z" fill="black" style="fill:black;fill-opacity:1;"/>
<path fill-rule="evenodd" clip-rule="evenodd" d="M54.4482 50.5264C55.0168 50.5409 55.4736 51.0049 55.4736 51.5752V63.4023H55.4209V64.6914H43.7617C43.793 64.696 43.8249 64.6992 43.8574 64.6992L55.4727 64.6982V64.7188C55.4584 65.2766 55.0078 65.7259 54.4482 65.7402L54.4209 65.7412H43.3154L43.2881 65.7402C42.7286 65.7259 42.2779 65.2765 42.2637 64.7188L42.2627 64.6914V51.5752C42.2627 51.0049 42.7196 50.541 43.2881 50.5264H54.4482ZM47.9131 58.9014C47.6883 58.6776 47.3243 58.6776 47.0996 58.9014L46.0674 59.9307L45.0352 58.9014C44.8103 58.6774 44.4455 58.6773 44.2207 58.9014C43.9961 59.1254 43.9963 59.4888 44.2207 59.7129L45.2529 60.7422L44.2207 61.7705C43.9961 61.9945 43.9963 62.358 44.2207 62.582C44.4455 62.8061 44.8104 62.8061 45.0352 62.582L46.0674 61.5537L47.0996 62.582C47.3244 62.8061 47.6883 62.806 47.9131 62.582C48.1379 62.3579 48.1379 61.9946 47.9131 61.7705L46.8818 60.7422L47.9131 59.7129C48.1379 59.4888 48.1379 59.1255 47.9131 58.9014ZM51.248 58.7334C50.1354 58.7334 49.2334 59.633 49.2334 60.7422C49.2336 61.8513 50.1354 62.75 51.248 62.75C52.3607 62.75 53.2625 61.8513 53.2627 60.7422C53.2627 59.633 52.3608 58.7334 51.248 58.7334ZM48.6572 57.5859C48.3397 57.5862 48.0823 57.8426 48.082 58.1592C48.082 58.476 48.3395 58.7331 48.6572 58.7334C48.9752 58.7334 49.2334 58.4761 49.2334 58.1592C49.2331 57.8425 48.975 57.5859 48.6572 57.5859ZM46.0674 53.5693C44.9547 53.5693 44.0529 54.468 44.0527 55.5771C44.0527 56.6864 44.9547 57.5859 46.0674 57.5859C47.1801 57.5859 48.082 56.6863 48.082 55.5771C48.0819 54.4681 47.18 53.5694 46.0674 53.5693ZM49.8086 56.4385C49.4909 56.4387 49.2335 56.695 49.2334 57.0117C49.2334 57.3285 49.4908 57.5857 49.8086 57.5859C50.1265 57.5859 50.3848 57.3286 50.3848 57.0117C50.3846 56.6949 50.1264 56.4385 49.8086 56.4385ZM50.3848 53.5693C50.0669 53.5693 49.8087 53.8258 49.8086 54.1426C49.8086 54.4595 50.0668 54.7168 50.3848 54.7168H52.1113V56.4385C52.1115 56.7552 52.3697 57.0117 52.6875 57.0117C53.0052 57.0116 53.2625 56.7551 53.2627 56.4385V54.1426C53.2626 53.8259 53.0052 53.5695 52.6875 53.5693H50.3848ZM50.96 55.29C50.6422 55.2902 50.3848 55.5475 50.3848 55.8643C50.3848 56.1811 50.6422 56.4383 50.96 56.4385C51.2779 56.4385 51.5361 56.1812 51.5361 55.8643C51.5361 55.5474 51.2779 55.29 50.96 55.29Z" fill="black" style="fill:black;fill-opacity:1;"/>
<path d="M59.0371 47.2568C59.1044 47.4819 59.1885 47.7062 59.2881 47.9297C59.2906 47.9358 59.2923 47.9422 59.2949 47.9482C59.2957 47.95 59.2971 47.9514 59.2979 47.9531C59.3117 47.9839 59.3277 48.0133 59.3457 48.041C59.3526 48.0515 59.3607 48.0612 59.3682 48.0713C59.3828 48.0912 59.3983 48.11 59.415 48.1279C59.4248 48.1384 59.4349 48.1484 59.4453 48.1582C59.5001 48.2097 59.5628 48.2513 59.6318 48.2812C59.6367 48.2833 59.6416 48.2851 59.6465 48.2871C59.6787 48.3002 59.7118 48.3106 59.7461 48.3184C59.7532 48.32 59.7604 48.3209 59.7676 48.3223C59.8078 48.33 59.8487 48.3359 59.8906 48.3359C59.8939 48.3359 59.8981 48.335 59.9014 48.335H60.71C61.2382 48.336 61.7636 48.4117 62.2705 48.5605C65.4173 49.477 67.7012 53.0797 67.7012 57.1279V63.4033H64.1729V58.7861C64.1729 58.4288 63.8818 58.1379 63.5234 58.1377C63.1649 58.1377 62.873 58.4287 62.873 58.7861V63.4033H56.7363V51.5752C56.7363 50.3004 55.6997 49.2667 54.4209 49.2666H48.3887C48.8746 48.958 49.3932 48.7172 49.9385 48.5586C50.4451 48.4108 50.971 48.334 51.499 48.334H52.2988C52.3056 48.3342 52.3125 48.3359 52.3193 48.3359C52.5762 48.3369 52.8085 48.187 52.9141 47.9531C53.0179 47.7221 53.1033 47.4895 53.1729 47.2568C54.0572 47.9541 55.0633 48.3261 56.1045 48.3262L56.1035 48.3271C57.1464 48.3271 58.1531 47.9544 59.0371 47.2568Z" fill="black" style="fill:black;fill-opacity:1;"/>
<path d="M56.1045 40.3965H56.1318C57.2827 40.3965 58.4644 40.9285 59.6396 41.9766C59.9056 42.2147 60.2151 42.3418 60.5273 42.3535C60.2031 43.5252 59.7354 44.5252 59.1357 45.3086C58.2866 46.4184 57.2096 47.0303 56.1045 47.0303L55.8975 47.0225C54.8662 46.9514 53.8703 46.35 53.0732 45.3086C52.4734 44.5249 52.0049 43.5248 51.6807 42.3525C51.9947 42.3415 52.3045 42.2145 52.5723 41.9766C53.7535 40.9215 54.9417 40.3905 56.1006 40.3965L56.1025 40.3955L56.1045 40.3965Z" fill="black" style="fill:black;fill-opacity:1;"/>
<path d="M56.123 37.7334C56.8858 37.7478 57.6465 37.8262 58.3955 37.9688C58.3991 37.9695 58.4027 37.97 58.4062 37.9707L58.4082 37.9717C59.6536 38.2093 60.6204 38.5678 61.1357 38.7852C61.0648 39.3016 60.9587 39.8706 60.791 40.627C60.7332 40.8926 60.6173 41.023 60.5674 41.0547C60.5451 41.0426 60.5232 41.028 60.5039 41.0098C59.0781 39.7379 57.6009 39.0955 56.1113 39.1006H56.0791C54.5972 39.1007 53.1259 39.7441 51.708 41.0107C51.6887 41.028 51.6669 41.0435 51.6436 41.0557C51.5937 41.0231 51.4778 40.8917 51.4189 40.627C51.2516 39.8719 51.1443 39.3038 51.0732 38.7881C51.5878 38.5711 52.5554 38.2116 53.8027 37.9736C54.5646 37.8278 55.3392 37.7475 56.1152 37.7344C56.1178 37.7344 56.1204 37.7335 56.123 37.7334Z" fill="black" style="fill:black;fill-opacity:1;"/>
<path d="M53.7197 32.668C53.2623 33.5322 53.0215 34.6717 53.0215 35.9863C53.0215 36.2926 53.0237 36.5637 53.0254 36.8115C52.16 37.0081 51.4455 37.2484 50.9346 37.4453C50.9309 37.1659 50.9287 36.7206 50.9287 35.9854C50.9287 34.2731 52.1545 33.19 53.7197 32.668Z" fill="black" style="fill:black;fill-opacity:1;"/>
<path d="M58.4902 32.6689C60.0549 33.191 61.2812 34.273 61.2812 35.9854C61.2812 36.5123 61.2738 36.9865 61.2539 37.4346C60.7448 37.2393 60.0389 37.0032 59.1865 36.8096C59.187 36.6441 59.1885 36.3893 59.1885 35.9854C59.1885 34.6715 58.9477 33.533 58.4902 32.6689Z" fill="black" style="fill:black;fill-opacity:1;"/>
<path d="M56.1064 32.2959C56.9714 32.2975 57.8887 33.592 57.8887 35.9863C57.8887 36.198 57.8855 36.3926 57.8848 36.5742C57.2989 36.4939 56.7087 36.4464 56.1172 36.4365H56.1064C56.0966 36.4364 56.0869 36.4381 56.0771 36.4385C55.4892 36.4482 54.9026 36.4959 54.3203 36.5762C54.3203 36.4117 54.3203 36.2167 54.3203 35.9863C54.3203 33.5919 55.2382 32.2972 56.1035 32.2969L56.1064 32.2959Z" fill="black" style="fill:black;fill-opacity:1;"/>
<path fill-rule="evenodd" clip-rule="evenodd" d="M55 20C71.5685 20 85 33.4315 85 50C85 66.5685 71.5685 80 55 80C38.4315 80 25 66.5685 25 50C25 33.4315 38.4315 20 55 20ZM56.0508 31C54.4169 31.0093 52.8873 31.4325 51.7393 32.1924C50.3578 33.1067 49.626 34.4179 49.626 35.9854C49.626 36.9127 49.6404 37.6905 49.7217 38.46C49.7661 38.8917 49.8317 39.3261 49.9277 39.8389C50.1505 42.4161 50.881 44.5805 52.04 46.0947C52.0495 46.1071 52.0599 46.1186 52.0693 46.1309C52.0432 46.4401 51.9797 46.7446 51.8799 47.0381H51.499C50.8473 47.0381 50.1996 47.1313 49.5742 47.3145C48.3846 47.6619 47.27 48.3362 46.3174 49.2666H43.3154C42.0367 49.2668 41 50.3004 41 51.5752V64.6914C41 65.9662 42.0366 66.9998 43.3154 67H54.4209C55.6972 66.9999 56.7322 65.9706 56.7363 64.6992H68.3516C68.71 64.6982 68.9998 64.4081 69 64.0508V57.1289C69 54.8729 68.3668 52.6559 67.2119 50.8799C66.0571 49.104 64.4324 47.838 62.6377 47.3154C62.012 47.1322 61.3621 47.0391 60.71 47.0391H60.3311C60.2311 46.7445 60.1681 46.4384 60.1426 46.1279C60.1511 46.117 60.1605 46.1067 60.1689 46.0957C61.3259 44.5831 62.0541 42.4257 62.2783 39.8535C62.3369 39.5427 62.3862 39.2611 62.4238 38.9912L62.4883 38.46C62.4895 38.4479 62.4906 38.4359 62.4912 38.4238C62.5673 37.6844 62.583 37.5268 62.583 35.9854C62.583 34.4189 61.8521 33.1067 60.4707 32.1924C59.3093 31.4243 57.7601 31.0004 56.1055 31H56.0508Z" fill="black" style="fill:black;fill-opacity:1;"/>
<circle cx="55" cy="50" r="31" stroke="black" style="stroke:black;stroke-opacity:1;" stroke-width="2"/>
</g>
<defs>
<filter id="filter0_f_7994_30436" x="2" y="2" width="101" height="99" filterUnits="userSpaceOnUse" color-interpolation-filters="sRGB">
<feFlood flood-opacity="0" result="BackgroundImageFix"/>
<feBlend mode="normal" in="SourceGraphic" in2="BackgroundImageFix" result="shape"/>
<feGaussianBlur stdDeviation="15" result="effect1_foregroundBlur_7994_30436"/>
</filter>
<filter id="filter1_f_7994_30436" x="0" y="21" width="79" height="79" filterUnits="userSpaceOnUse" color-interpolation-filters="sRGB">
<feFlood flood-opacity="0" result="BackgroundImageFix"/>
<feBlend mode="normal" in="SourceGraphic" in2="BackgroundImageFix" result="shape"/>
<feGaussianBlur stdDeviation="15" result="effect1_foregroundBlur_7994_30436"/>
</filter>
<filter id="filter2_f_7994_30436" x="22" y="0" width="87" height="87" filterUnits="userSpaceOnUse" color-interpolation-filters="sRGB">
<feFlood flood-opacity="0" result="BackgroundImageFix"/>
<feBlend mode="normal" in="SourceGraphic" in2="BackgroundImageFix" result="shape"/>
<feGaussianBlur stdDeviation="15" result="effect1_foregroundBlur_7994_30436"/>
</filter>
<filter id="filter3_f_7994_30436" x="-1" y="4" width="96" height="96" filterUnits="userSpaceOnUse" color-interpolation-filters="sRGB">
<feFlood flood-opacity="0" result="BackgroundImageFix"/>
<feBlend mode="normal" in="SourceGraphic" in2="BackgroundImageFix" result="shape"/>
<feGaussianBlur stdDeviation="10" result="effect1_foregroundBlur_7994_30436"/>
</filter>
<filter id="filter4_f_7994_30436" x="-3" y="32" width="65" height="65" filterUnits="userSpaceOnUse" color-interpolation-filters="sRGB">
<feFlood flood-opacity="0" result="BackgroundImageFix"/>
<feBlend mode="normal" in="SourceGraphic" in2="BackgroundImageFix" result="shape"/>
<feGaussianBlur stdDeviation="10" result="effect1_foregroundBlur_7994_30436"/>
</filter>
<filter id="filter5_f_7994_30436" x="36" y="3" width="69" height="69" filterUnits="userSpaceOnUse" color-interpolation-filters="sRGB">
<feFlood flood-opacity="0" result="BackgroundImageFix"/>
<feBlend mode="normal" in="SourceGraphic" in2="BackgroundImageFix" result="shape"/>
<feGaussianBlur stdDeviation="10" result="effect1_foregroundBlur_7994_30436"/>
</filter>
</defs>
</svg>
