<svg width="222" height="42" viewBox="0 0 222 42" fill="none" xmlns="http://www.w3.org/2000/svg">
<path d="M62.9868 32.6953C62.2928 32.6953 61.6514 32.5271 61.0626 32.1906C60.4948 31.8331 60.0321 31.3704 59.6746 30.8026C59.3381 30.2138 59.1699 29.5724 59.1699 28.8784V28.626H61.7566V28.8784C61.7566 29.2149 61.8722 29.5093 62.1036 29.7617C62.3559 29.993 62.6503 30.1086 62.9868 30.1086H73.9644C74.3009 30.1086 74.5848 29.993 74.8161 29.7617C75.0684 29.5093 75.1946 29.2149 75.1946 28.8784V26.0709C75.1946 25.7344 75.0684 25.4505 74.8161 25.2192C74.5848 24.9669 74.3009 24.8407 73.9644 24.8407H62.9868C62.2928 24.8407 61.6514 24.6724 61.0626 24.336C60.4948 23.9785 60.0321 23.5158 59.6746 22.948C59.3381 22.3592 59.1699 21.7178 59.1699 21.0238V18.2163C59.1699 17.5223 59.3381 16.8914 59.6746 16.3236C60.0321 15.7348 60.4948 15.2721 61.0626 14.9356C61.6514 14.5781 62.2928 14.3994 62.9868 14.3994H73.9644C74.6794 14.3994 75.3208 14.5781 75.8886 14.9356C76.4774 15.2721 76.9401 15.7348 77.2766 16.3236C77.6341 16.8914 77.8128 17.5223 77.8128 18.2163V18.4686H75.1946V18.2163C75.1946 17.8798 75.0684 17.5959 74.8161 17.3646C74.5848 17.1122 74.3009 16.986 73.9644 16.986H62.9868C62.6503 16.986 62.3559 17.1122 62.1036 17.3646C61.8722 17.5959 61.7566 17.8798 61.7566 18.2163V21.0238C61.7566 21.3602 61.8722 21.6547 62.1036 21.907C62.3559 22.1384 62.6503 22.254 62.9868 22.254H73.9644C74.6794 22.254 75.3208 22.4328 75.8886 22.7903C76.4774 23.1268 76.9401 23.5894 77.2766 24.1782C77.6341 24.746 77.8128 25.3769 77.8128 26.0709V28.8784C77.8128 29.5724 77.6341 30.2138 77.2766 30.8026C76.9401 31.3704 76.4774 31.8331 75.8886 32.1906C75.3208 32.5271 74.6794 32.6953 73.9644 32.6953H62.9868ZM80.9845 39.9506V14.3994H95.8106C96.5045 14.3994 97.1354 14.5781 97.7032 14.9356C98.2921 15.2721 98.7547 15.7348 99.0912 16.3236C99.4487 16.8914 99.6275 17.5223 99.6275 18.2163V28.8784C99.6275 29.5724 99.4487 30.2138 99.0912 30.8026C98.7547 31.3704 98.2921 31.8331 97.7032 32.1906C97.1354 32.5271 96.5045 32.6953 95.8106 32.6953H83.5712V39.9506H80.9845ZM84.833 30.1086H95.8106C96.147 30.1086 96.4309 29.993 96.6623 29.7617C96.9146 29.5093 97.0408 29.2149 97.0408 28.8784V18.2163C97.0408 17.8798 96.9146 17.5959 96.6623 17.3646C96.4309 17.1122 96.147 16.986 95.8106 16.986H84.833C84.4965 16.986 84.2021 17.1122 83.9498 17.3646C83.6974 17.5959 83.5712 17.8798 83.5712 18.2163V28.8784C83.5712 29.2149 83.6974 29.5093 83.9498 29.7617C84.2021 29.993 84.4965 30.1086 84.833 30.1086ZM105.654 32.6953C104.96 32.6953 104.319 32.5271 103.73 32.1906C103.162 31.8331 102.7 31.3704 102.342 30.8026C102.006 30.2138 101.838 29.5724 101.838 28.8784V18.2163C101.838 17.5223 102.006 16.8914 102.342 16.3236C102.7 15.7348 103.162 15.2721 103.73 14.9356C104.319 14.5781 104.96 14.3994 105.654 14.3994H116.632C117.347 14.3994 117.988 14.5781 118.556 14.9356C119.145 15.2721 119.608 15.7348 119.944 16.3236C120.302 16.8914 120.48 17.5223 120.48 18.2163V28.8784C120.48 29.5724 120.302 30.2138 119.944 30.8026C119.608 31.3704 119.145 31.8331 118.556 32.1906C117.988 32.5271 117.347 32.6953 116.632 32.6953H105.654ZM105.654 30.1086H116.632C116.969 30.1086 117.252 29.993 117.484 29.7617C117.736 29.5093 117.862 29.2149 117.862 28.8784V18.2163C117.862 17.8798 117.736 17.5959 117.484 17.3646C117.252 17.1122 116.969 16.986 116.632 16.986H105.654C105.318 16.986 105.024 17.1122 104.771 17.3646C104.54 17.5959 104.424 17.8798 104.424 18.2163V28.8784C104.424 29.2149 104.54 29.5093 104.771 29.7617C105.024 29.993 105.318 30.1086 105.654 30.1086ZM123.402 32.6953V18.2163C123.402 17.5223 123.57 16.8914 123.907 16.3236C124.264 15.7348 124.727 15.2721 125.295 14.9356C125.884 14.5781 126.525 14.3994 127.219 14.3994H137.503V16.986H127.219C126.883 16.986 126.588 17.1122 126.336 17.3646C126.104 17.5959 125.989 17.8798 125.989 18.2163V32.6953H123.402ZM143.393 32.6953C142.678 32.6953 142.026 32.5271 141.437 32.1906C140.869 31.8331 140.417 31.3704 140.08 30.8026C139.744 30.2138 139.576 29.5724 139.576 28.8784V8.40589H142.162V14.3994H150.08V16.986H142.162V28.8784C142.162 29.2149 142.278 29.5093 142.509 29.7617C142.762 29.993 143.056 30.1086 143.393 30.1086H150.08V32.6953H143.393ZM152.514 32.6953V12.2228C152.514 11.5078 152.682 10.8664 153.019 10.2986C153.355 9.70974 153.807 9.24708 154.375 8.91061C154.964 8.57413 155.616 8.40589 156.331 8.40589H163.018V10.9926H156.331C155.994 10.9926 155.7 11.1187 155.448 11.3711C155.216 11.6024 155.101 11.8863 155.101 12.2228V14.3994H163.018V16.986H155.101V32.6953H152.514ZM165.139 32.6953V32.6638L172.773 23.3896L165.139 14.4309V14.3994H168.546L174.476 21.3392L180.438 14.3994H183.813V14.4309L176.18 23.3896L183.845 32.6638V32.6953H180.438L174.476 25.3769L168.546 32.6953H165.139ZM187.232 32.6953V30.1086H189.819V32.6953H187.232ZM197.732 32.6953C197.039 32.6953 196.397 32.5271 195.808 32.1906C195.24 31.8331 194.778 31.3704 194.42 30.8026C194.084 30.2138 193.916 29.5724 193.916 28.8784V22.254H209.94V18.2163C209.94 17.8798 209.814 17.5959 209.562 17.3646C209.33 17.1122 209.047 16.986 208.71 16.986H193.916V14.3994H208.71C209.425 14.3994 210.066 14.5781 210.634 14.9356C211.223 15.2721 211.686 15.7348 212.022 16.3236C212.38 16.8914 212.558 17.5223 212.558 18.2163V32.6953H197.732ZM197.732 30.1086H209.94V24.8407H196.502V28.8784C196.502 29.2149 196.618 29.5093 196.849 29.7617C197.102 29.993 197.396 30.1086 197.732 30.1086ZM215.818 32.6953V14.3994H218.405V32.6953H215.818ZM215.818 10.9926V8.40589H218.405V10.9926H215.818Z" fill="#FAFAFA"/>
<path d="M0 20.4893H10.9481L17.8171 31.3127H28.5375L22.2455 20.4893H32.7644L39.6988 31.3127L34.3226 40.5521H16.379L10.2955 36.7336L0 20.4893Z" fill="#FAFAFA"/>
<path d="M49.5171 20.0628H38.5691L31.7003 9.23937H20.9795L27.2714 20.0628H16.7531L9.81836 9.23937L15.1945 0H33.1378L39.2218 3.81803L49.5171 20.0628Z" fill="#FAFAFA"/>
</svg>
