<svg width="54" height="54" viewBox="0 0 54 54" fill="none" xmlns="http://www.w3.org/2000/svg">
<path d="M21.9024 22.4361C22.0855 22.4353 22.0855 22.4353 22.2722 22.4344C22.6745 22.433 23.0768 22.4331 23.4792 22.4333C23.6887 22.433 23.8982 22.4327 24.1077 22.4323C24.766 22.4312 25.4244 22.4311 26.0828 22.4318C26.7599 22.4324 27.4371 22.4311 28.1142 22.4288C28.6975 22.427 29.2807 22.4264 29.8639 22.4267C30.2114 22.4269 30.5589 22.4265 30.9064 22.4251C31.2944 22.4238 31.6823 22.4246 32.0703 22.4258C32.1841 22.425 32.2978 22.4242 32.415 22.4233C33.5459 22.4312 34.4169 22.707 35.2266 23.5197C36.0795 24.6387 36.1006 25.7398 36.0909 27.0925C36.0905 27.2544 36.0902 27.4164 36.09 27.5784C36.0892 28.0021 36.0871 28.4259 36.0848 28.8496C36.0826 29.283 36.0817 29.7164 36.0806 30.1498C36.0784 30.9984 36.0748 31.847 36.0703 32.6955C36.2269 32.6433 36.2269 32.6433 36.3867 32.5901C36.6774 32.5783 36.9655 32.5724 37.2562 32.5714C37.3893 32.5703 37.3893 32.5703 37.525 32.5693C37.8191 32.5672 38.1131 32.566 38.4071 32.5649C38.5078 32.5645 38.6084 32.5641 38.7121 32.5636C39.2455 32.5614 39.7789 32.5599 40.3122 32.5589C40.8611 32.5578 41.4099 32.5541 41.9587 32.5499C42.3824 32.5472 42.806 32.5463 43.2297 32.5459C43.4318 32.5454 43.634 32.5442 43.8361 32.5422C45.2719 32.5291 46.4783 32.569 47.5722 33.6138C48.1096 34.2473 48.4222 34.9894 48.4257 35.8171C48.4268 36.0014 48.4268 36.0014 48.428 36.1895C48.4282 36.3244 48.4285 36.4594 48.4288 36.5984C48.4295 36.7419 48.4302 36.8853 48.4309 37.0288C48.4331 37.5 48.4342 37.9711 48.4353 38.4423C48.4357 38.6046 48.4361 38.7669 48.4366 38.9292C48.4386 39.6915 48.4401 40.4539 48.441 41.2163C48.442 42.0961 48.4448 42.9758 48.449 43.8556C48.4522 44.5358 48.4538 45.216 48.4541 45.8962C48.4544 46.3024 48.4553 46.7085 48.458 47.1147C48.4604 47.4969 48.4609 47.8791 48.4598 48.2613C48.4597 48.468 48.4617 48.6747 48.4638 48.8814C48.4571 50.0219 48.4571 50.0219 47.9883 50.5197C47.6893 50.6692 47.4384 50.639 47.1039 50.6397C47.0336 50.6399 46.9634 50.6402 46.891 50.6405C46.6533 50.6413 46.4156 50.6414 46.178 50.6414C46.0067 50.6419 45.8355 50.6423 45.6643 50.6428C45.192 50.6441 44.7197 50.6447 44.2474 50.6452C43.7388 50.6458 43.2301 50.647 42.7215 50.6482C41.4922 50.6508 40.2629 50.6523 39.0337 50.6537C38.6867 50.654 38.3397 50.6545 37.9927 50.6549C35.8395 50.6576 33.6863 50.6599 31.5332 50.6612C31.0342 50.6615 30.5353 50.6618 30.0363 50.6621C29.8503 50.6622 29.8503 50.6622 29.6605 50.6624C27.6503 50.6637 25.6401 50.6672 23.6299 50.6716C21.5677 50.6761 19.5055 50.6786 17.4433 50.6791C16.2848 50.6795 15.1262 50.6807 13.9677 50.6842C12.9813 50.6871 11.995 50.6883 11.0086 50.6871C10.505 50.6866 10.0015 50.6869 9.49799 50.6895C9.0373 50.6919 8.57668 50.6918 8.11599 50.6898C7.94906 50.6895 7.78212 50.6901 7.61519 50.6917C7.38869 50.6937 7.16243 50.6924 6.93593 50.6904C6.74705 50.6906 6.74705 50.6906 6.55436 50.6908C6.12574 50.606 5.96974 50.4296 5.69531 50.0979C5.53766 49.7826 5.57546 49.4958 5.57432 49.1439C5.57393 49.0665 5.57355 48.9892 5.57315 48.9094C5.57198 48.6487 5.57158 48.388 5.57118 48.1273C5.57051 47.9409 5.56981 47.7545 5.56907 47.5681C5.56724 47.0606 5.56612 46.553 5.56526 46.0455C5.56471 45.7283 5.56407 45.4111 5.56341 45.0939C5.5614 44.1012 5.5599 43.1085 5.55902 42.1158C5.55799 40.9704 5.55522 39.8251 5.55095 38.6798C5.54777 37.7944 5.54621 36.909 5.54586 36.0235C5.54561 35.4948 5.54467 34.9662 5.54201 34.4375C5.53955 33.9396 5.53912 33.4417 5.5402 32.9437C5.54025 32.7615 5.53959 32.5793 5.53813 32.3971C5.5287 31.143 5.64022 30.103 6.45172 29.0906C7.20461 28.341 8.16272 28.0336 9.20549 28.0275C9.32421 28.0284 9.32421 28.0284 9.44532 28.0293C9.53118 28.0291 9.61704 28.0289 9.70549 28.0287C9.98651 28.0283 10.2675 28.0294 10.5485 28.0306C10.7449 28.0307 10.9413 28.0308 11.1378 28.0307C11.548 28.0309 11.9583 28.0318 12.3686 28.0332C12.8944 28.035 13.4202 28.0354 13.9461 28.0353C14.351 28.0353 14.756 28.0359 15.161 28.0367C15.3549 28.037 15.5489 28.0372 15.7428 28.0373C16.0134 28.0375 16.284 28.0384 16.5546 28.0396C16.6346 28.0395 16.7146 28.0395 16.797 28.0394C17.1539 28.0416 17.4831 28.0485 17.8242 28.1604C17.8258 28.0828 17.8273 28.0053 17.8289 27.9254C17.8368 27.5686 17.847 27.2119 17.8572 26.8552C17.8596 26.7332 17.8619 26.6113 17.8644 26.4856C17.9004 25.3278 18.0921 24.3031 18.8789 23.4143C19.8421 22.5814 20.6656 22.4333 21.9024 22.4361ZM20.5664 25.1018C20.1979 25.6545 20.235 26.2106 20.2373 26.8578C20.2372 26.9495 20.2371 27.0413 20.237 27.1358C20.2369 27.4432 20.2375 27.7505 20.238 28.0579C20.2381 28.2783 20.238 28.4986 20.238 28.719C20.238 29.3173 20.2386 29.9157 20.2393 30.514C20.24 31.1393 20.24 31.7645 20.2402 32.3898C20.2405 33.5738 20.2413 34.7579 20.2424 35.942C20.2438 37.542 20.2444 39.142 20.245 40.742C20.246 43.2629 20.2481 45.7839 20.25 48.3049C24.705 48.3049 29.16 48.3049 33.75 48.3049C33.7561 44.3463 33.7561 44.3463 33.7603 40.3877C33.7616 38.7739 33.763 37.1601 33.7659 35.5462C33.768 34.371 33.7694 33.1957 33.7698 32.0205C33.7701 31.3981 33.7708 30.7757 33.7723 30.1533C33.7737 29.5676 33.7742 28.9819 33.7739 28.3962C33.7739 28.1811 33.7743 27.9661 33.7751 27.751C33.7762 27.4575 33.7759 27.164 33.7754 26.8705C33.776 26.7853 33.7766 26.7002 33.7772 26.6124C33.7741 26.0275 33.7242 25.5337 33.3347 25.0688C33.007 24.8007 32.7353 24.7721 32.3266 24.7706C32.2294 24.7699 32.1323 24.7693 32.0322 24.7687C31.9258 24.7686 31.8195 24.7685 31.7099 24.7684C31.5977 24.7678 31.4855 24.7673 31.37 24.7668C30.9981 24.7652 30.6262 24.7645 30.2543 24.7639C29.9961 24.7633 29.738 24.7627 29.4799 24.7621C28.9382 24.761 28.3966 24.7604 27.855 24.76C27.1609 24.7594 26.4668 24.7569 25.7728 24.7539C25.2394 24.7519 24.706 24.7514 24.1726 24.7512C23.9168 24.7509 23.6609 24.7501 23.405 24.7487C23.047 24.7469 22.689 24.7471 22.331 24.7478C22.2253 24.7468 22.1196 24.7458 22.0107 24.7448C21.4521 24.7482 21.0441 24.7776 20.5664 25.1018ZM8.22656 30.6916C7.9381 31.1537 7.87084 31.5051 7.87211 32.0452C7.87184 32.115 7.87157 32.1849 7.87129 32.2569C7.87077 32.4897 7.8725 32.7223 7.87424 32.955C7.87433 33.1224 7.87427 33.2898 7.8741 33.4572C7.87401 33.9106 7.87586 34.364 7.87807 34.8174C7.88005 35.2917 7.88024 35.7659 7.88061 36.2401C7.8816 37.1377 7.88419 38.0352 7.88737 38.9328C7.89157 40.146 7.89328 41.3592 7.89512 42.5724C7.8981 44.4832 7.9044 46.3941 7.91016 48.3049C11.2166 48.3049 14.523 48.3049 17.9297 48.3049C17.942 45.2623 17.942 45.2623 17.9503 42.2196C17.9528 40.9792 17.9557 39.7387 17.9615 38.4982C17.9657 37.5949 17.9684 36.6915 17.9694 35.7882C17.9699 35.3098 17.9712 34.8314 17.9743 34.353C17.9772 33.9028 17.978 33.4526 17.9774 33.0023C17.9775 32.8371 17.9784 32.6718 17.98 32.5065C17.9821 32.2808 17.9816 32.0553 17.9804 31.8296C17.981 31.6401 17.981 31.6401 17.9816 31.4469C17.919 31.0447 17.7922 30.8722 17.5078 30.5861C17.0345 30.3659 16.6062 30.3481 16.0887 30.3462C15.9747 30.3454 15.9747 30.3454 15.8583 30.3446C15.6084 30.3431 15.3586 30.3432 15.1088 30.3435C14.9341 30.3431 14.7595 30.3426 14.5848 30.3421C14.2193 30.3413 13.8538 30.3414 13.4882 30.3419C13.0211 30.3425 12.5539 30.3407 12.0868 30.3383C11.7262 30.3367 11.3656 30.3366 11.005 30.337C10.8329 30.3369 10.6607 30.3364 10.4885 30.3353C10.2472 30.334 10.006 30.3347 9.76474 30.3359C9.62777 30.3359 9.49079 30.3358 9.34967 30.3357C8.90878 30.381 8.61098 30.4701 8.22656 30.6916ZM36.2164 35.4159C36.0412 35.6951 36.0312 35.8523 36.0323 36.1799C36.0318 36.2869 36.0314 36.394 36.0309 36.5043C36.0321 36.6211 36.0332 36.738 36.0344 36.8583C36.0343 36.9818 36.0343 37.1054 36.0343 37.2326C36.0345 37.6412 36.0369 38.0498 36.0394 38.4584C36.0402 38.7416 36.0405 39.0247 36.0408 39.3079C36.0418 39.9772 36.0443 40.6466 36.0475 41.3159C36.0514 42.1528 36.0531 42.9897 36.0549 43.8266C36.0579 45.3194 36.0643 46.8121 36.0703 48.3049C39.3768 48.3049 42.6832 48.3049 46.0898 48.3049C46.1025 45.9811 46.1025 45.9811 46.111 43.6573C46.1134 42.8262 46.1164 41.9952 46.1217 41.1641C46.1259 40.5062 46.1286 39.8482 46.1295 39.1902C46.1301 38.8419 46.1316 38.4937 46.1345 38.1454C46.1375 37.7563 46.1379 37.3672 46.1377 36.9781C46.1393 36.863 46.1408 36.7479 46.1423 36.6293C46.1389 35.9909 46.1098 35.5985 45.668 35.1213C45.3028 34.8417 44.8835 34.8799 44.4417 34.8814C44.3612 34.8809 44.2808 34.8803 44.1978 34.8798C43.9321 34.8783 43.6665 34.8784 43.4008 34.8786C43.2159 34.8782 43.0309 34.8778 42.846 34.8773C42.4585 34.8765 42.0709 34.8765 41.6834 34.8771C41.1871 34.8777 40.6909 34.8759 40.1946 34.8734C39.8127 34.8719 39.4308 34.8718 39.0489 34.8721C38.8659 34.8721 38.6829 34.8715 38.5 34.8705C38.244 34.8692 37.9881 34.8699 37.7321 34.8711C37.6567 34.8703 37.5814 34.8695 37.5038 34.8687C36.9393 34.8746 36.5955 34.995 36.2164 35.4159Z" fill="#FAFAFA"/>
<path d="M28.6764 4.19256C29.5765 4.72693 29.9824 5.46153 30.4582 6.37362C30.5221 6.49571 30.586 6.61779 30.6519 6.74358C30.7098 6.85765 30.7677 6.97172 30.8274 7.08924C31.0134 7.39201 31.118 7.53416 31.4297 7.69939C31.702 7.75564 31.9659 7.80018 32.2405 7.83782C33.3004 8.01222 33.9671 8.44776 34.6531 9.27978C35.1721 10.0075 35.3018 10.8313 35.2266 11.7072C35.0027 12.9156 34.3607 13.6863 33.4414 14.4655C33.2105 14.6712 33.1263 14.7669 33.0995 15.0736C33.0961 15.4692 33.1073 15.7878 33.2227 16.1699C33.5187 17.2614 33.3152 18.2472 32.7744 19.2223C32.3039 19.9267 31.6292 20.2969 30.8562 20.6061C29.649 20.8179 28.7015 20.586 27.6592 19.9535C27.3476 19.776 27.2173 19.7232 26.8484 19.7031C26.4101 19.8492 26.0612 20.0654 25.6713 20.3099C24.9262 20.7546 24.0493 20.7989 23.2167 20.5995C22.1858 20.2564 21.5531 19.7758 21.0122 18.8329C20.5361 17.8383 20.5625 16.8616 20.8828 15.8205C20.9616 15.3762 20.9821 15.0292 20.7361 14.6381C20.4715 14.3285 20.2031 14.0703 19.8743 13.8298C19.1851 13.2289 18.8403 12.3746 18.7508 11.481C18.7106 10.564 18.9655 9.76147 19.5467 9.05112C20.3503 8.17603 21.0727 7.89672 22.2448 7.77561C22.6484 7.68111 22.81 7.57774 23.0977 7.27752C23.2952 6.95834 23.4605 6.62594 23.625 6.28875C24.3643 4.78708 24.3643 4.78708 25.095 4.35076C25.1612 4.30997 25.2274 4.26919 25.2956 4.22716C26.3042 3.72378 27.6547 3.69967 28.6764 4.19256ZM26.2617 6.53924C25.8213 7.11326 25.5166 7.79012 25.1905 8.43232C24.7856 9.1023 24.1615 9.61833 23.447 9.93401C23.1167 10.015 22.7947 10.0639 22.4582 10.112C21.9653 10.189 21.6511 10.2702 21.3047 10.6525C21.1352 10.9915 21.15 11.3395 21.1992 11.7072C21.368 11.9956 21.5576 12.1824 21.8147 12.3936C22.6886 13.1135 23.2135 13.9531 23.3313 15.09C23.3581 15.6874 23.2228 16.2109 23.0511 16.7808C22.9834 17.1314 23.0082 17.3744 23.0977 17.7189C23.3365 18.0175 23.5222 18.203 23.8755 18.3517C24.5115 18.3517 25.0832 17.9354 25.617 17.6225C26.3284 17.2569 27.2896 17.2871 28.0473 17.482C28.5535 17.6782 28.9759 17.9429 29.4258 18.2463C29.7979 18.3894 29.9456 18.3539 30.3354 18.2397C30.7633 17.994 30.8781 17.878 31.0078 17.4025C30.9724 17.0406 30.8882 16.6992 30.7969 16.3478C30.5573 15.2673 30.6826 14.332 31.2525 13.3708C31.58 12.9073 31.9683 12.5442 32.4069 12.1863C32.7275 11.9011 32.7988 11.7278 32.8403 11.2985C32.8307 10.9722 32.7966 10.856 32.6294 10.5602C32.1968 10.1732 31.7356 10.1229 31.1792 10.0329C30.258 9.87142 29.6329 9.52165 29.0645 8.76479C28.6814 8.21646 28.3872 7.64128 28.1066 7.03486C27.943 6.73902 27.786 6.54478 27.5273 6.3283C26.992 6.1823 26.6868 6.17004 26.2617 6.53924Z" fill="#FAFAFA"/>
</svg>
