<svg width="54" height="54" viewBox="0 0 54 54" fill="none" xmlns="http://www.w3.org/2000/svg">
<path d="M5.42792 16.2152C5.52491 16.2145 5.6219 16.2138 5.72183 16.2131C5.82856 16.2134 5.93528 16.2138 6.04524 16.2141C6.21515 16.2134 6.21515 16.2134 6.38849 16.2127C6.77004 16.2113 7.15158 16.2115 7.53314 16.2117C7.80599 16.211 8.07884 16.2103 8.35169 16.2095C9.01754 16.2078 9.68339 16.2072 10.3492 16.2071C10.8914 16.207 11.4335 16.2065 11.9757 16.2059C13.5151 16.204 15.0545 16.203 16.5939 16.2032C16.6769 16.2032 16.7599 16.2032 16.8455 16.2032C16.9702 16.2032 16.9702 16.2032 17.0974 16.2033C18.4402 16.2033 19.7829 16.2013 21.1257 16.1983C22.5066 16.1953 23.8876 16.1939 25.2686 16.194C26.0429 16.1941 26.8173 16.1935 27.5916 16.1913C28.3217 16.1891 29.0518 16.1892 29.7819 16.1907C30.0484 16.191 30.3148 16.1905 30.5812 16.1892C34.8053 16.1701 38.2928 17.3758 41.3438 20.3556C42.1207 21.1412 42.8949 22.0575 43.3761 23.0605C43.5363 23.334 43.5363 23.334 43.8295 23.3749C43.936 23.3752 44.0425 23.3756 44.1523 23.3759C44.2702 23.378 44.3882 23.3801 44.5097 23.3823C44.633 23.3819 44.7564 23.3816 44.8835 23.3812C46.3032 23.3916 47.4989 23.4406 48.6021 24.4302C49.3174 25.2029 49.5811 26.1207 49.5873 27.1549C49.5883 27.2908 49.5893 27.4267 49.5904 27.5668C49.5909 27.7145 49.5913 27.8622 49.5917 28.0099C49.592 28.0849 49.5923 28.1599 49.5926 28.2372C49.5942 28.6343 49.5952 29.0315 49.5957 29.4287C49.5962 29.8363 49.5988 30.244 49.6018 30.6516C49.6037 30.9674 49.6043 31.2831 49.6044 31.5988C49.6048 31.7489 49.6056 31.8991 49.607 32.0492C49.6182 33.3453 49.4807 34.4247 48.6211 35.4376C47.8651 36.1545 46.9483 36.5115 45.9058 36.4849C45.7995 36.48 45.6931 36.4751 45.5835 36.4701C44.4217 36.3845 44.4217 36.3845 43.3521 36.7355C43.0198 37.0952 42.8225 37.5244 42.6166 37.9646C42.4287 38.3235 42.1712 38.6159 41.9041 38.9181C41.8544 38.9751 41.8048 39.0322 41.7537 39.091C41.6183 39.2454 41.4811 39.3982 41.3438 39.5509C41.2813 39.6209 41.2189 39.6909 41.1547 39.7631C39.0583 41.9836 35.7526 43.5501 32.6962 43.6773C31.1589 43.7125 29.6558 43.7322 28.1602 43.3478C28.0926 43.3308 28.025 43.3138 27.9553 43.2963C24.3639 42.3688 21.355 39.9995 19.4784 36.8227C18.1393 34.4708 17.6385 32.0014 17.7188 29.3204C17.6537 29.3018 17.5887 29.2832 17.5217 29.264C16.904 29.0836 16.3053 28.8768 15.7074 28.6394C15.6172 28.604 15.527 28.5686 15.434 28.5321C15.1364 28.4152 14.8389 28.2976 14.5415 28.1801C14.3308 28.0971 14.12 28.0142 13.9092 27.9314C13.455 27.7528 13.0008 27.5739 12.5468 27.3949C11.7703 27.0888 10.9934 26.7838 10.2165 26.479C9.94855 26.3738 9.68064 26.2687 9.41273 26.1635C9.34698 26.1377 9.28124 26.1119 9.2135 26.0853C8.51917 25.8128 7.82489 25.5401 7.13068 25.2673C7.02232 25.2248 6.91396 25.1822 6.80232 25.1384C6.59986 25.0588 6.39749 24.9789 6.19525 24.8988C5.99975 24.822 5.80366 24.7467 5.60706 24.6728C5.51304 24.6369 5.41902 24.601 5.32216 24.564C5.1974 24.5173 5.1974 24.5173 5.07013 24.4696C4.83572 24.3557 4.69974 24.2481 4.53516 24.047C4.41903 23.6986 4.4156 23.439 4.41437 23.0721C4.4137 22.9362 4.41302 22.8003 4.41233 22.6603C4.41217 22.5119 4.41205 22.3634 4.41197 22.2149C4.41164 22.0627 4.41128 21.9104 4.41091 21.7582C4.41028 21.4391 4.41008 21.12 4.41015 20.8009C4.41016 20.3922 4.40872 19.9836 4.4069 19.5749C4.40573 19.2605 4.40551 18.9461 4.40557 18.6317C4.40545 18.481 4.40498 18.3303 4.40416 18.1797C4.40313 17.9689 4.40357 17.7581 4.40407 17.5473C4.40392 17.4274 4.40377 17.3075 4.40361 17.184C4.42957 16.8765 4.46858 16.7067 4.64063 16.4533C4.97288 16.2318 5.04921 16.2159 5.42792 16.2152ZM16.9805 18.1408C16.9805 18.7906 16.9831 18.8694 17.4023 19.3009C17.7378 19.4686 18.1005 19.4258 18.469 19.4278C18.554 19.4284 18.6391 19.429 18.7268 19.4296C18.907 19.4306 19.0872 19.4313 19.2675 19.4317C19.5425 19.4327 19.8174 19.436 20.0924 19.4393C20.2676 19.44 20.4427 19.4406 20.6179 19.441C20.7409 19.4429 20.7409 19.4429 20.8663 19.4449C21.3477 19.443 21.6616 19.3913 22.043 19.09C22.2035 18.8083 22.2035 18.8083 22.1484 18.1408C20.443 18.1408 18.7376 18.1408 16.9805 18.1408ZM6.32813 18.1408C6.32813 19.707 6.32813 21.2732 6.32813 22.8868C6.63879 23.007 6.94945 23.1272 7.26952 23.251C9.52127 24.1226 11.7721 24.9964 14.0204 25.877C14.2454 25.9651 14.4705 26.0532 14.6956 26.1412C15.4228 26.4256 16.1492 26.7121 16.875 27.0001C17.0378 27.0645 17.0378 27.0645 17.204 27.1301C17.5271 27.2581 17.8498 27.3873 18.1724 27.5168C18.2707 27.5556 18.369 27.5944 18.4704 27.6344C18.561 27.6711 18.6517 27.7078 18.7451 27.7456C18.8645 27.7933 18.8645 27.7933 18.9863 27.842C19.2115 27.9577 19.3506 28.0711 19.5117 28.2658C19.6318 28.7156 19.6214 29.1518 19.6102 29.613C19.5398 32.6417 20.5481 35.3278 22.4648 37.6525C22.5236 37.7262 22.5823 37.7998 22.6428 37.8758C24.3471 39.9597 27.2268 41.4155 29.8819 41.7394C33.539 41.9881 36.6568 41.1126 39.4453 38.7072C41.1531 37.1868 42.2874 35.1887 42.9258 33.0118C42.9617 32.8927 42.9976 32.7737 43.0345 32.6509C43.4829 30.8494 43.4486 28.6746 42.9258 26.8947C42.8911 26.7684 42.8564 26.6421 42.8207 26.5119C41.8772 23.3809 39.7142 20.9412 36.8745 19.38C34.9305 18.3549 32.9087 18.0899 30.7441 18.1099C30.5527 18.1104 30.3612 18.1109 30.1697 18.1112C29.6717 18.1124 29.1738 18.1155 28.6758 18.119C28.1653 18.1223 27.6547 18.1237 27.1442 18.1253C26.1469 18.1287 25.1496 18.1341 24.1523 18.1408C24.1327 18.2411 24.1131 18.3415 24.0929 18.445C24.066 18.5772 24.0391 18.7094 24.0114 18.8457C23.9853 18.9765 23.9591 19.1074 23.9322 19.2422C23.7699 19.8748 23.4995 20.353 22.9658 20.7375C22.4495 21.0373 21.9924 21.2106 21.3926 21.2163C21.307 21.2174 21.2214 21.2184 21.1332 21.2194C20.9956 21.2201 20.9956 21.2201 20.8552 21.2208C20.712 21.2217 20.712 21.2217 20.5659 21.2226C20.3639 21.2236 20.1618 21.2243 19.9598 21.2247C19.6531 21.2257 19.3465 21.229 19.0398 21.2323C18.8429 21.233 18.6461 21.2335 18.4492 21.234C18.3585 21.2353 18.2679 21.2366 18.1744 21.2379C17.2389 21.2345 16.4762 21.0075 15.7915 20.3568C15.2164 19.6867 15.1705 19.0257 15.082 18.1408C12.1932 18.1408 9.30446 18.1408 6.32813 18.1408ZM44.4023 25.3126C44.4304 25.4198 44.4584 25.5269 44.4872 25.6373C45.2747 28.6871 45.2652 31.4519 44.4023 34.4884C44.7561 34.5039 45.1097 34.5131 45.4636 34.5214C45.5631 34.5258 45.6625 34.5302 45.765 34.5348C46.3451 34.5449 46.732 34.4946 47.2036 34.1474C47.7874 33.4311 47.7196 32.6324 47.7176 31.7499C47.7181 31.6064 47.7187 31.4629 47.7193 31.3193C47.7202 31.0194 47.72 30.7196 47.7189 30.4196C47.7177 30.0372 47.7198 29.6549 47.7229 29.2725C47.7249 28.9764 47.7248 28.6802 47.7242 28.3841C47.7242 28.1752 47.726 27.9663 47.7278 27.7574C47.722 26.9994 47.6718 26.4786 47.25 25.84C46.7981 25.4803 46.431 25.2982 45.8546 25.3023C45.7277 25.3028 45.7277 25.3028 45.5981 25.3034C45.4663 25.3047 45.4663 25.3047 45.3318 25.306C45.1981 25.3068 45.1981 25.3068 45.0617 25.3075C44.8419 25.3087 44.6221 25.3106 44.4023 25.3126Z" fill="#FAFAFA"/>
<path d="M36.2598 23.6471C36.5207 23.8791 36.7707 24.1187 37.0195 24.3635C37.1164 24.4471 37.1164 24.4471 37.2152 24.5324C38.4824 25.6633 39.1554 27.4569 39.3398 29.1096C39.4622 31.3113 38.9726 33.3731 37.5092 35.0771C35.9892 36.7615 34.0196 37.7344 31.7465 37.8767C29.6384 37.9386 27.7102 37.1914 26.1233 35.8201C24.5481 34.3239 23.6401 32.4649 23.5754 30.2857C23.555 28.0966 24.1456 26.2246 25.6289 24.5745C25.6836 24.51 25.7382 24.4456 25.7945 24.3792C28.4012 21.5105 33.271 21.2886 36.2598 23.6471ZM27.0733 25.8389C25.9298 27.0725 25.457 28.5475 25.4731 30.2039C25.5011 30.9382 25.6667 31.5931 25.9453 32.2737C25.977 32.3523 26.0087 32.4308 26.0413 32.5118C26.7402 34.0549 28.0473 35.0539 29.5947 35.6487C31.0632 36.1335 32.5745 36.0221 33.9807 35.3825C35.5491 34.5592 36.6333 33.3089 37.2305 31.6409C37.6932 30.0501 37.452 28.4325 36.6735 26.9842C35.7731 25.4924 34.3895 24.4702 32.6953 24.0471C30.5713 23.7482 28.601 24.2969 27.0733 25.8389Z" fill="#FAFAFA"/>
<path d="M24.8906 10.7578C25.1969 10.9813 25.2959 11.1276 25.4114 11.4895C25.4212 11.971 25.1997 12.2301 24.885 12.582C24.7636 12.7027 24.7636 12.7027 24.6397 12.826C24.5513 12.9142 24.4628 13.0024 24.3717 13.0933C24.2798 13.184 24.1878 13.2747 24.093 13.3681C24.0006 13.4604 23.9083 13.5528 23.8131 13.6479C23.0215 14.4339 23.0215 14.4339 22.5374 14.4887C22.1484 14.4492 22.1484 14.4492 21.8386 14.2382C21.6202 13.9206 21.5173 13.7035 21.5436 13.3133C21.7197 12.7785 22.1781 12.4087 22.5703 12.0234C22.6613 11.9276 22.7522 11.8317 22.8459 11.733C24.0457 10.4822 24.0457 10.4822 24.8906 10.7578Z" fill="#FAFAFA"/>
<path d="M15.1875 10.7577C15.4995 10.9713 15.7613 11.2321 16.0312 11.4959C16.0868 11.5495 16.1424 11.603 16.1996 11.6582C16.3861 11.8383 16.5714 12.0195 16.7563 12.2013C16.8167 12.2602 16.877 12.3191 16.9391 12.3798C17.4938 12.9336 17.4938 12.9336 17.6133 13.2889C17.6054 13.7284 17.5753 13.9498 17.2837 14.2843C16.8837 14.5017 16.6925 14.533 16.2422 14.4491C15.9187 14.2472 15.6661 13.9805 15.3984 13.7108C15.2725 13.5872 15.1464 13.4638 15.0202 13.3404C14.7543 13.0786 14.4888 12.8163 14.2255 12.5519C14.1696 12.4958 14.1136 12.4397 14.056 12.382C13.8355 12.1391 13.8151 12.0093 13.7834 11.6739C13.8217 11.223 13.9178 11.069 14.2383 10.7577C14.6326 10.6262 14.7879 10.637 15.1875 10.7577Z" fill="#FAFAFA"/>
<path d="M19.5645 10.2764C19.9888 10.3446 20.1638 10.4517 20.4609 10.7576C20.6362 11.2832 20.5903 11.8288 20.5928 12.3792C20.5949 12.4991 20.5971 12.619 20.5994 12.7425C20.5999 12.8584 20.6005 12.9742 20.601 13.0935C20.6025 13.2521 20.6025 13.2521 20.604 13.4138C20.5475 13.8602 20.3527 14.1354 20.0391 14.449C19.4553 14.516 19.4553 14.516 19.1953 14.449C18.8616 14.1764 18.6876 14.0173 18.5997 13.5894C18.5991 13.4673 18.5985 13.3453 18.5979 13.2196C18.5973 13.0857 18.5966 12.9518 18.5959 12.8138C18.5979 12.6747 18.5999 12.5356 18.6021 12.3923C18.599 12.1837 18.599 12.1837 18.5959 11.9709C18.5966 11.837 18.5972 11.703 18.5979 11.5651C18.5985 11.443 18.5991 11.321 18.5997 11.1953C18.7141 10.6383 19.0092 10.3656 19.5645 10.2764Z" fill="#FAFAFA"/>
</svg>
