<svg width="32" height="32" viewBox="0 0 32 32" fill="none" xmlns="http://www.w3.org/2000/svg">
<path d="M4 9.33333V6.66667C4 5.95942 4.28095 5.28115 4.78105 4.78105C5.28115 4.28095 5.95942 4 6.66667 4H9.33333" stroke="#353535" stroke-width="1.75" stroke-linecap="round" stroke-linejoin="round"/>
<path d="M22.6667 4H25.3334C26.0406 4 26.7189 4.28095 27.219 4.78105C27.7191 5.28115 28 5.95942 28 6.66667V9.33333" stroke="#353535" stroke-width="1.75" stroke-linecap="round" stroke-linejoin="round"/>
<path d="M28 22.6665V25.3332C28 26.0404 27.7191 26.7187 27.219 27.2188C26.7189 27.7189 26.0406 27.9998 25.3334 27.9998H22.6667" stroke="#353535" stroke-width="1.75" stroke-linecap="round" stroke-linejoin="round"/>
<path d="M9.33333 27.9998H6.66667C5.95942 27.9998 5.28115 27.7189 4.78105 27.2188C4.28095 26.7187 4 26.0404 4 25.3332V22.6665" stroke="#353535" stroke-width="1.75" stroke-linecap="round" stroke-linejoin="round"/>
<path d="M9.33331 16H22.6666" stroke="#353535" stroke-width="1.75" stroke-linecap="round" stroke-linejoin="round"/>
</svg>
